<svg xmlns="http://www.w3.org/2000/svg" width="1052.362" height="248.031" viewBox="0 0 1052.3622 248.03136">
	<style>
		.slogan{
			font-style:normal;
			font-variant:normal;
			font-weight:600;
			font-stretch:normal;
			font-family:Prompt;
			letter-spacing:4.4296608px;
			fill:#999999;
		}
	</style>
	<path id="leftpillar" class="pillars" d="M38.932 127.528h30.743l-24.892 48.785h-31.62z" fill="#ffffff"/>
	<path id="rightpillar" class="pillars" d="M153.928 127.528h-30.744l24.893 48.785h31.618z" fill="#ffffff"/>
	<path id="mountainpeak" class="mountainpeak" d="M97.09 17.07l-46.815 86.654h91.972L97.09 17.07z" fill="#2979ff"/>
	
	<path d="M985.898 62.754c-8.122 0-15.592 1.525-22.41 4.57-6.67 3.046-12.47 7.182-17.4 12.403-4.932 5.076-8.778 11.093-11.534 18.055-2.756 6.816-4.13 14.07-4.13 21.756 0 8.266 1.374 15.876 4.13 22.838 2.9 6.816 6.892 12.766 11.968 17.842 5.076 5.076 11.02 9.062 17.837 11.963 6.96 2.76 14.5 4.14 22.62 4.14 12.03 0 22.19-2.68 30.45-8.05 8.41-5.36 15.08-12.4 20.01-21.1l-23.71-11.74c-2.47 4.5-5.88 8.27-10.23 11.31-4.21 2.9-9.57 4.35-16.1 4.35-3.34 0-6.6-.43-9.79-1.3-3.19-1.01-6.17-2.53-8.92-4.56-2.61-2.17-4.86-4.78-6.75-7.83-1.74-3.19-2.9-6.96-3.48-11.31h80.27c0-.87.07-1.66.216-2.39 0-.72.07-1.52.22-2.39v-2.61c0-7.98-1.164-15.37-3.485-22.19-2.32-6.81-5.73-12.69-10.224-17.62-4.49-5.074-10.07-8.99-16.75-11.743-6.67-2.9-14.28-4.35-22.84-4.35zm0 23.278c4.35 0 8.047.656 11.092 1.962 3.19 1.305 5.802 2.97 7.832 5 2.176 2.03 3.773 4.207 4.788 6.527 1.16 2.33 1.812 4.43 1.957 6.31H960.01c1.886-6.23 5.148-11.09 9.79-14.57 4.64-3.48 10.006-5.22 16.098-5.22zM682.372 62.754c-19.58 0-35.026 7.108-46.338 21.32l20.67 14.143c6.815-8.267 15.153-12.403 25.015-12.403 6.67 0 12.25 1.887 16.75 5.658 4.49 3.626 6.74 8.268 6.74 13.924v3.26c-2.9-1.16-6.6-2.245-11.1-3.26-4.5-1.16-10.23-1.74-17.19-1.74-6.24 0-12.04.87-17.4 2.61-5.23 1.595-9.8 3.99-13.71 7.18-3.92 3.19-6.96 7.03-9.14 11.527-2.18 4.35-3.26 9.283-3.26 14.794 0 5.366 1.01 10.298 3.04 14.794 2.03 4.5 4.86 8.34 8.48 11.53 3.62 3.19 7.83 5.66 12.62 7.4 4.93 1.89 10.15 2.83 15.66 2.83 7.4 0 13.41-1.45 18.05-4.35 4.783-2.9 8.85-6.38 12.182-10.44h1.74v14.5h28.06v-67.15c0-15.23-4.348-26.68-13.05-34.37-8.7-7.83-21.32-11.75-37.854-11.75zm.87 61.567c4.205 0 8.046.51 11.527 1.53 3.62.87 7.11 2.11 10.44 3.7 0 3.19-.66 6.31-1.96 9.36-1.16 2.9-2.9 5.51-5.22 7.83-2.18 2.18-4.86 3.99-8.05 5.44-3.19 1.31-6.67 1.96-10.44 1.96-4.64 0-8.78-1.3-12.4-3.92-3.48-2.61-5.22-6.08-5.22-10.44 0-4.35 1.81-7.97 5.44-10.87 3.77-3.04 9.06-4.57 15.88-4.57zM489.45 62.76c-8.12 0-14.935 1.597-20.446 4.788-5.507 3.188-9.57 7.026-12.18 11.518v-12.83h-28.5V230.96h28.495v-70.95c2.61 4.493 6.67 8.33 12.18 11.518 5.51 3.19 12.32 4.788 20.44 4.788 6.81 0 13.27-1.38 19.36-4.135 6.23-2.9 11.67-6.81 16.31-11.74 4.78-5.07 8.55-11.1 11.31-18.06 2.75-6.96 4.13-14.57 4.13-22.84s-1.38-15.88-4.14-22.84c-2.76-6.96-6.52-12.91-11.31-17.84-4.64-5.07-10.08-8.99-16.32-11.74-6.09-2.9-12.55-4.35-19.367-4.35zm-5.87 26.327c3.77 0 7.323.725 10.66 2.176 3.48 1.45 6.524 3.48 9.135 6.09 2.61 2.61 4.714 5.8 6.31 9.57 1.595 3.774 2.39 7.98 2.39 12.62 0 4.644-.795 8.847-2.39 12.617-1.596 3.77-3.7 6.96-6.31 9.57-2.61 2.612-5.656 4.644-9.136 6.094-3.34 1.45-6.89 2.174-10.66 2.174-3.77 0-7.4-.65-10.88-1.956-3.34-1.45-6.31-3.482-8.92-6.092-2.61-2.61-4.71-5.8-6.31-9.57-1.6-3.77-2.4-8.046-2.4-12.832 0-4.786.8-9.067 2.39-12.837 1.59-3.77 3.69-6.96 6.3-9.57 2.61-2.61 5.58-4.57 8.92-5.87 3.48-1.45 7.11-2.17 10.88-2.17zm-127.95-26.33c-19.58 0-35.027 7.11-46.34 21.32l20.67 14.144c6.816-8.26 15.155-12.4 25.017-12.4 6.67 0 12.254 1.89 16.75 5.66 4.496 3.63 6.745 8.27 6.745 13.93v3.26c-2.9-1.16-6.597-2.24-11.093-3.26-4.5-1.16-10.23-1.74-17.19-1.74-6.24 0-12.04.87-17.41 2.61-5.22 1.6-9.79 3.99-13.71 7.18-3.92 3.19-6.96 7.03-9.14 11.53-2.18 4.35-3.26 9.29-3.26 14.8 0 5.37 1.01 10.3 3.04 14.8 2.03 4.5 4.86 8.34 8.48 11.53 3.62 3.19 7.83 5.66 12.62 7.4 4.93 1.883 10.15 2.83 15.66 2.83 7.39 0 13.41-1.45 18.05-4.355 4.78-2.9 8.85-6.38 12.18-10.44h1.74v14.5h28.06V108.9c0-15.23-4.35-26.684-13.05-34.37-8.7-7.83-21.32-11.75-37.86-11.75zm.868 61.568c4.206 0 8.052.508 11.533 1.524 3.63.87 7.11 2.1 10.45 3.7 0 3.19-.65 6.31-1.95 9.35-1.16 2.9-2.9 5.51-5.22 7.83-2.17 2.17-4.86 3.99-8.05 5.44-3.19 1.3-6.67 1.95-10.44 1.95-4.64 0-8.77-1.31-12.4-3.92-3.48-2.61-5.21-6.09-5.21-10.44s1.81-7.98 5.44-10.88c3.77-3.05 9.07-4.57 15.88-4.57zM566.28 33.607V66.24h-18.706v24.363h18.707v48.367c0 12.036 3.42 21.315 10.23 27.842 2.9 2.9 6.46 5.22 10.66 6.962 4.35 1.595 9.21 2.39 14.58 2.39 4.64 0 8.85-.433 12.62-1.303 3.92-.72 7.54-1.88 10.88-3.48l-8.05-25.01c-1.3.87-2.68 1.6-4.13 2.18-1.45.44-3.4.65-5.87.65-3.77 0-6.67-1.15-8.7-3.47-1.45-1.45-2.47-3.19-3.05-5.22-.43-2.17-.65-4.49-.65-6.96V90.6h26.1V66.238h-26.11V33.606zm318.822-16.533v158.95h28.5V17.074h-28.5zm-129.176 0v158.95h28.502V160c2.61 4.497 6.673 8.338 12.184 11.528 5.51 3.19 12.325 4.788 20.447 4.788 6.81 0 13.27-1.38 19.36-4.135 6.23-2.9 11.67-6.81 16.31-11.74 4.78-5.07 8.55-11.1 11.31-18.06 2.75-6.96 4.13-14.57 4.13-22.84s-1.38-15.88-4.14-22.84c-2.76-6.96-6.52-12.91-11.31-17.84-4.64-5.07-10.08-8.99-16.32-11.74-6.09-2.9-12.55-4.35-19.36-4.35-8.12 0-14.94 1.6-20.45 4.79s-9.57 7.04-12.19 11.53v-62h-28.5zm55.267 72.008c3.77 0 7.322.725 10.658 2.176 3.49 1.45 6.53 3.482 9.14 6.092 2.61 2.61 4.72 5.8 6.31 9.57 1.6 3.772 2.39 7.98 2.39 12.62 0 4.642-.79 8.845-2.39 12.615-1.59 3.77-3.7 6.96-6.31 9.57-2.61 2.612-5.65 4.644-9.13 6.094-3.33 1.45-6.88 2.17-10.65 2.17-3.77 0-7.4-.65-10.88-1.96-3.33-1.45-6.31-3.48-8.92-6.09-2.61-2.61-4.71-5.8-6.31-9.57-1.59-3.77-2.39-8.05-2.39-12.83 0-4.79.8-9.07 2.39-12.84 1.6-3.77 3.7-6.96 6.31-9.57 2.61-2.61 5.59-4.57 8.92-5.88 3.48-1.45 7.11-2.18 10.88-2.18zM261.27 17.074V79.07c-2.612-4.496-6.675-8.337-12.186-11.528-5.51-3.19-12.325-4.788-20.446-4.788-6.817 0-13.346 1.453-19.582 4.353-6.09 2.756-11.53 6.67-16.316 11.745-4.64 4.93-8.337 10.88-11.093 17.843-2.755 6.96-4.13 14.576-4.13 22.843 0 8.266 1.375 15.876 4.13 22.838 2.756 6.96 6.452 12.984 11.093 18.06 4.786 4.93 10.225 8.844 16.316 11.745 6.236 2.76 12.765 4.14 19.582 4.14 8.12 0 14.935-1.59 20.446-4.79 5.51-3.19 9.574-7.03 12.185-11.52v16.03h28.5V17.08h-28.5zM234.512 89.08c3.77 0 7.322.724 10.658 2.175 3.48 1.305 6.526 3.264 9.137 5.875 2.61 2.61 4.714 5.8 6.31 9.57 1.595 3.77 2.39 8.052 2.39 12.838s-.795 9.06-2.39 12.832c-1.596 3.77-3.7 6.96-6.31 9.57-2.61 2.61-5.656 4.643-9.136 6.093-3.33 1.306-6.88 1.957-10.65 1.957-3.77 0-7.4-.724-10.88-2.174-3.33-1.45-6.31-3.482-8.92-6.093-2.61-2.61-4.71-5.8-6.31-9.57-1.59-3.77-2.39-7.974-2.39-12.615 0-4.64.8-8.85 2.39-12.62 1.6-3.77 3.7-6.96 6.31-9.57 2.61-2.61 5.59-4.643 8.92-6.093 3.48-1.45 7.11-2.174 10.88-2.174z" style="font-style:normal;font-variant:normal;font-weight:bold;font-stretch:normal;font-size:medium;line-height:125%;font-family:'Product Sans';-inkscape-font-specification:'Product Sans Bold';letter-spacing:0px;word-spacing:0px;fill:#ffffff;fill-opacity:1;stroke:none;stroke-width:1px;stroke-linecap:butt;stroke-linejoin:miter;stroke-opacity:1"/>
	
	<path id="slogan" class="slogan" d="M480.006 197.468h7.667l5.99 21.658 5.892-21.658h5.606l5.71 21.658 5.99-21.658h7.62l-9.39 33.493h-6.85l-5.99-21.22-5.94 21.23h-6.9l-9.39-33.49zm54.074 0h23.24v6.085h-15.956v7.763h11.74v5.845h-11.74v7.72h15.956v6.09h-23.24v-33.5zm67.127 0h7.14l13.368 33.493h-7.427l-2.875-7.28H598.14l-2.874 7.29h-7.475l13.42-33.49zm8.29 20.412l-4.744-12.745-4.743 12.745h9.487zm21.793-20.412h14.52q5.7 0 8.864 2.875 3.21 2.827 3.21 8.194 0 3.737-1.725 6.372-1.73 2.58-4.89 3.78l6.37 12.26h-7.48l-5.89-11.36h-5.7v11.35h-7.29v-33.49zm13.226 16.052q2.78 0 4.36-1.198 1.63-1.198 1.63-3.785 0-2.732-1.582-3.834-1.58-1.15-4.408-1.15h-5.942v9.967h5.942zm23.047-16.052H690.8v6.085h-15.954v7.763h11.74v5.845h-11.74v7.72H690.8v6.09h-23.237v-33.5zm67.127 0h7.138l13.37 33.493h-7.428l-2.875-7.28h-13.272l-2.875 7.29h-7.475l13.416-33.49zm8.288 20.412l-4.743-12.745-4.744 12.745h9.49zm21.795-20.412h11.643q5.462 0 9.535 2.013 4.08 2.02 6.28 5.75 2.21 3.74 2.21 8.82 0 8.34-4.88 12.65-4.84 4.27-13.51 4.27h-11.26v-33.5zm11.643 27.407q5.127 0 7.858-2.874 2.73-2.87 2.73-7.95 0-3.02-1.197-5.41t-3.497-3.73q-2.3-1.34-5.415-1.34h-4.84v21.33h4.36zm36.994-27.407h7.138l13.368 33.493h-7.427l-2.88-7.28h-13.27l-2.88 7.29h-7.48l13.42-33.49zm8.288 20.412l-4.744-12.745-4.743 12.745h9.49zm21.794-20.412h14.087q5.7 0 9.1 3.02 3.4 2.97 3.4 8.288 0 5.462-3.4 8.385-3.36 2.93-9.11 2.93h-6.81v10.88h-7.29v-33.5zm13.033 16.53q6.18 0 6.18-5.222 0-2.923-1.676-4.073-1.63-1.15-4.51-1.15h-5.75V214h5.75zm29.275-10.445h-9.774v-6.085h26.832v6.085h-9.775v27.408H885.8v-27.4zm32.305-6.085h7.14l13.368 33.493h-7.427l-2.875-7.28h-13.27l-2.87 7.29h-7.47l13.42-33.49zm8.29 20.412l-4.744-12.745-4.74 12.745h9.49zm21.795-20.412h16.434q4.743 0 7.427 2.348 2.69 2.348 2.69 6.804 0 2.252-1.05 4.12-1.05 1.82-2.87 2.828 2.49.91 3.74 2.78 1.25 1.82 1.25 4.79 0 3.02-1.39 5.27-1.34 2.205-3.73 3.403-2.34 1.15-5.22 1.15H948.2v-33.49zm15.044 13.608q1.917 0 3.02-.958 1.1-.96 1.1-3.067 0-2.3-1.1-3.16-1.055-.86-3.26-.86h-7.522v8.05h7.762zm.43 14.326q2.35 0 3.547-.91 1.25-.958 1.25-3.306 0-2.396-1.29-3.45-1.24-1.054-3.73-1.054h-7.95v8.72h8.2zm21.732-27.934h7.283v27.407h15.33v6.086h-22.62v-33.49zm30.564 0h23.238v6.085h-15.956v7.763h11.74v5.845h-11.74v7.72h15.956v6.09h-23.24v-33.5z" fill="#999999" />

 
</svg>
