<?xml version="1.0" encoding="UTF-8"?>
<svg width="200px" height="38px" viewBox="0 0 200 38" version="1.1" xmlns="http://www.w3.org/2000/svg" xmlns:xlink="http://www.w3.org/1999/xlink">
    <title>Group 8 Copy 2</title>
    <g id="Landing-page" stroke="none" stroke-width="1" fill="none" fill-rule="evenodd">
        <g id="Global-survey-Landing-page" transform="translate(-55.000000, -50.000000)">
            <g id="Group-8-Copy-2" transform="translate(55.000000, 50.000000)">
                <path d="M198.949565,19.9716611 C201.910018,12.5329329 198.398654,4.06541598 191.108489,1.0606735 C184.382985,-1.71119228 176.794287,1.13596697 173.333333,7.43130059 C176.795924,2.65816105 183.135496,0.686871405 188.815808,3.0276321 C195.539021,5.7984984 198.794734,13.5623878 196.087641,20.3674516 C193.726873,26.299311 187.615783,29.542927 181.632356,28.4438422 C188.601728,30.5837093 196.157037,26.9909448 198.949565,19.9716611" id="Fill-1" fill="#E3E4E2"></path>
                <path d="M191.995403,13.3295981 C194.210509,7.90157924 193.613785,2.5394968 190.659339,1.35167541 C187.707809,0.165462227 183.517454,3.6050945 181.302348,9.03182684 C181.232984,9.20261838 181.174965,9.37276663 181.111111,9.54194997 C183.182627,4.87364786 186.825202,1.96826182 189.414679,3.00909313 C192.097828,4.08723483 192.630698,8.98583213 190.603912,13.9503659 C188.871436,18.1969962 185.828502,21.106242 183.306445,21.1879389 C186.195742,21.6749038 189.942687,18.3610333 191.995403,13.3295981" id="Fill-4" fill="#FF7F20"></path>
                <path d="M188.550135,10.0040381 C182.195429,5.39173582 175.203142,4.20108147 172.936148,7.34385516 C171.679456,9.08401693 172.137275,11.7893603 173.874214,14.6400743 L174.729161,14.2550565 C174.140396,12.4964349 174.195149,10.8999956 175.033604,9.73670121 C177.14986,6.80456654 183.442556,7.74964019 189.087445,11.847047 C194.733983,15.943465 197.598318,21.643904 195.481402,24.575709 C195.479093,24.5799943 195.473815,24.58395 195.470187,24.5882353 C195.648631,24.4247346 195.809923,24.244752 195.952414,24.0466392 C198.220727,20.9035359 194.90715,14.6166699 188.550135,10.0040381" id="Fill-5" fill="#B2B3B2"></path>
                <path d="M8.66543158,27.884379 C9.95556361,27.884379 11.1302416,27.4984699 12.1894655,26.7272923 L12.1894655,19.7812497 C11.2842922,19.4875745 10.2542674,19.3402565 9.09871994,19.3402565 C6.24861556,19.3402565 4.82389899,20.8195211 4.82389899,23.7777302 C4.82389899,26.5159231 6.10429798,27.884379 8.66543158,27.884379 Z M8.57884103,38 C5.88278728,38 3.34078415,37.4853478 0.953167267,36.4570043 L2.59973016,32.6808602 C4.69837626,33.7649284 6.64364298,34.3064821 8.43452345,34.3064821 C8.93493627,34.3064821 9.35379287,34.2834236 9.69109326,34.2376269 C10.0277224,34.1921505 10.4130168,34.0951128 10.8463051,33.9487556 C11.2795935,33.8011174 11.6118595,33.5353045 11.8431033,33.1493954 C12.0740114,32.7634864 12.1894655,32.276056 12.1894655,31.6883854 L12.1894655,30.4477118 C10.8607369,31.238425 9.36822463,31.6333013 7.71259993,31.6333013 C6.63357431,31.6333013 5.64718044,31.5000746 4.7517402,31.2336212 C3.85629997,30.9678083 3.04241594,30.5447495 2.31075938,29.9657258 C1.57876719,29.3870224 1.0108943,28.5783748 0.606469455,27.539783 C0.202380233,26.502152 0,25.2755697 0,23.8606766 C0,21.4167995 0.693060003,19.4366537 2.07985125,17.9208798 C3.46630688,16.4047856 5.5938165,15.6470588 8.46338697,15.6470588 C10.3502554,15.6470588 11.8525007,15.9500214 12.9694517,16.556267 L16.6666667,16.0051056 L16.6666667,30.1175274 C16.6666667,35.3722956 13.9706129,38 8.57884103,38 L8.57884103,38 Z" id="Fill-7" fill="#FF7F20"></path>
                <polyline id="Fill-9" fill="#FF7F20" points="24.4444444 31.2941176 20 31.2941176 20 9.61191729 24.4444444 8.94117647 24.4444444 31.2941176"></polyline>
                <path d="M35.5130281,28.7225251 C36.737621,28.7225251 37.7362766,28.355968 38.508995,27.6218944 C39.281385,26.8878208 39.6679084,25.6765194 39.6679084,23.9879902 C39.6679084,22.4283636 39.281385,21.2628019 38.508995,20.4919446 C37.7362766,19.7210874 36.737621,19.3356588 35.5130281,19.3356588 C34.3071539,19.3356588 33.3176934,19.7210874 32.5453034,20.4919446 C31.772585,21.2628019 31.3867184,22.4283636 31.3867184,23.9879902 C31.3867184,25.7315349 31.777511,26.9565902 32.5597529,27.6631561 C33.341338,28.3697219 34.326201,28.7225251 35.5130281,28.7225251 Z M35.5412703,32.4117647 C32.6769907,32.4117647 30.4823127,31.6594592 28.9559229,30.1545283 C27.4298616,28.6495975 26.6666667,26.5941914 26.6666667,23.9879902 C26.6666667,22.9241432 26.8223269,21.9188302 27.1329906,20.9736505 C27.4439826,20.0284707 27.9286968,19.1475824 28.5884466,18.3309855 C29.247868,17.5147084 30.1759182,16.8628382 31.3725973,16.3763346 C32.568948,15.8901507 33.9587246,15.6470588 35.5412703,15.6470588 C37.2180659,15.6470588 38.6646552,15.9039046 39.8797246,16.4175962 C41.0951223,16.9316077 42.0182466,17.6151438 42.6497542,18.4685243 C43.2806051,19.3219049 43.7377339,20.2027932 44.0204838,21.1111893 C44.3032337,22.0195854 44.4444444,22.9788389 44.4444444,23.9879902 C44.4444444,26.4288249 43.7186868,28.4432892 42.2681568,30.0301037 C40.8169699,31.6181976 38.5750028,32.4117647 35.5412703,32.4117647 L35.5412703,32.4117647 Z" id="Fill-10" fill="#FF7F20"></path>
                <path d="M55.7209502,19.3358459 C54.4502843,19.3358459 53.2947368,19.7580521 52.254979,20.6021447 L52.254979,28.2274451 C53.1792827,28.5578534 54.2089719,28.7225778 55.3457245,28.7225778 C58.1568967,28.7225778 59.5628184,27.0529441 59.5628184,23.7127171 C59.5628184,20.7946963 58.2820838,19.3358459 55.7209502,19.3358459 Z M52.254979,10.0588235 L52.254979,16.8032482 C53.4870483,16.032402 54.9412997,15.6472987 56.6163904,15.6472987 C59.1389275,15.6472987 61.0744612,16.3448986 62.4226558,17.7391387 C63.7701793,19.1340185 64.4444444,21.0975973 64.4444444,23.630195 C64.4444444,25.1718874 64.2178994,26.5255062 63.7658162,27.6907314 C63.3127261,28.8562765 62.6918249,29.7736155 61.9024413,30.4430682 C61.1127221,31.1134805 60.2317136,31.6089332 59.2594159,31.9300658 C58.2867825,32.2511984 57.2231955,32.4117647 56.067648,32.4117647 C53.1792827,32.4117647 50.4157689,31.9342239 47.7777778,30.9804216 L47.7777778,10.7196402 L52.254979,10.0588235 L52.254979,10.0588235 Z" id="Fill-11" fill="#FF7F20"></path>
                <path d="M73.1176784,25.2267994 C70.9133538,25.2267994 69.8111915,25.9151333 69.8111915,27.2914813 C69.8111915,28.6128138 70.9704832,29.27364 73.2900687,29.27364 C74.6317734,29.27364 75.8010877,29.1175494 76.7980117,28.8056881 L76.7980117,25.6947513 C75.8779284,25.38289 74.6511506,25.2267994 73.1176784,25.2267994 Z M73.2900687,19.2256277 C71.3733955,19.2256277 69.5522719,19.6846236 67.8270322,20.6019757 L66.2167193,16.9955792 C68.4210438,16.0967789 70.8462018,15.6470588 73.4915249,15.6470588 C74.8141864,15.6470588 75.9544349,15.7801197 76.9132727,16.0459215 C77.8714422,16.312363 78.6141239,16.6424562 79.1416517,17.0371607 C79.6685113,17.4318652 80.0854554,17.9410788 80.3924839,18.5648015 C80.6988443,19.188844 80.8956232,19.7809008 80.9818184,20.340332 C81.0680135,20.900403 81.1111111,21.5657072 81.1111111,22.3362446 L81.1111111,30.8972381 C80.2675343,31.3015383 79.1172631,31.6546613 77.6606316,31.9575667 C76.204,32.260472 74.7279912,32.4117647 73.2326053,32.4117647 C68.1146835,32.4117647 65.5555556,30.6867717 65.5555556,27.2364658 C65.5555556,25.6947513 66.1308582,24.46074 67.2807953,23.5337921 C68.4307324,22.6071641 70.1750153,22.1436902 72.5139781,22.1436902 C74.3731879,22.1436902 75.8010877,22.3272886 76.7980117,22.6941655 L76.7980117,21.8682927 C76.7980117,20.106516 75.6286974,19.2256277 73.2900687,19.2256277 L73.2900687,19.2256277 Z" id="Fill-12" fill="#FF7F20"></path>
                <polyline id="Fill-13" fill="#FF7F20" points="88.8888889 31.2941176 84.4444444 31.2941176 84.4444444 9.61191729 88.8888889 8.94117647 88.8888889 31.2941176"></polyline>
                <path d="M96.9370315,32.4117647 C95.7561196,32.4117647 94.6332745,32.244234 93.5671689,31.911167 C92.5007315,31.5774351 91.682488,31.2101307 91.1111111,30.809586 L92.0823191,28.5209967 C93.0910215,29.074114 93.9762907,29.4557118 94.7381265,29.6654576 C95.4989669,29.8752034 96.3656546,29.9799101 97.3368626,29.9799101 C98.3266519,29.9799101 99.0738881,29.760857 99.5785711,29.3220861 C100.082922,28.8833152 100.335098,28.3494772 100.335098,27.7199074 C100.335098,27.1667901 100.12108,26.699765 99.6927138,26.3181672 C99.264347,25.9369019 98.2506674,25.4599047 96.6513431,24.8878405 C94.8993862,24.27755 93.6428216,23.6576199 92.8816494,23.0280501 C92.1198136,22.3988127 91.7395593,21.4451507 91.7395593,20.1673966 C91.7395593,18.8896425 92.2296427,17.8169805 93.2101413,16.9487459 C94.1906399,16.0815085 95.6993801,15.6470588 97.7363619,15.6470588 C99.6402878,15.6470588 101.306306,15.9525365 102.734084,16.5628269 L101.648734,19.1662011 C100.316185,18.4415643 98.9929264,18.0789135 97.6792905,18.0789135 C95.7182933,18.0789135 94.7381265,18.7470419 94.7381265,20.0816368 C94.7381265,20.672648 94.9664118,21.1306982 95.4233142,21.4547904 C95.8802166,21.7795473 96.822557,22.1983741 98.2506674,22.7135976 C100.135348,23.4000082 101.453298,24.0917372 102.205843,24.787455 C102.957724,25.4838377 103.333333,26.4517929 103.333333,27.6913208 C103.333333,29.0073012 102.781201,30.1231754 101.67727,31.0386111 C100.573006,31.9540469 98.9929264,32.4117647 96.9370315,32.4117647" id="Fill-14" fill="#1C204D"></path>
                <path d="M117.175267,16.0821337 L120,15.6470588 L120,32.1792305 L117.757606,32.1792305 L117.233467,31.1645051 C115.796737,31.9958992 114.088294,32.4117647 112.107462,32.4117647 C107.73975,32.4117647 105.555556,30.2363903 105.555556,25.8856414 L105.555556,16.0821337 L108.380289,15.6470588 L108.380289,25.2187063 C108.380289,26.8622851 108.739302,28.0465246 109.458005,28.7717617 C110.175693,29.4966619 111.282848,29.8592804 112.777778,29.8592804 C114.427344,29.8592804 115.89385,29.395223 117.175267,28.4671082 L117.175267,16.0821337" id="Fill-15" fill="#1C204D"></path>
                <path d="M123.333333,32.4117647 L123.333333,16.3143443 L126.195275,15.8792607 L126.195275,17.3297642 C127.374669,16.2081853 128.574285,15.6470588 129.794123,15.6470588 C130.77678,15.6470588 131.95686,15.96621 133.333333,16.6045124 L132.183073,19.3019635 C131.27822,18.6639982 130.393246,18.344847 129.528151,18.344847 C128.308656,18.344847 127.197811,18.9538292 126.195275,20.1721308 L126.195275,32.4117647 L123.333333,32.4117647" id="Fill-16" fill="#1C204D"></path>
                <path d="M140.843113,31.2941176 L134.444444,15.6470588 L137.616379,15.6470588 L141.008792,24.7885442 C141.560308,26.3253089 142.010877,27.6617647 142.360181,28.7959979 C142.709485,27.4786798 143.123202,26.133612 143.601331,24.7611133 L146.911065,15.6470588 L150,15.6470588 L143.684011,31.2941176 L140.843113,31.2941176" id="Fill-17" fill="#1C204D"></path>
                <path d="M155.305472,22.3130529 L163.833227,22.3130529 C163.833227,21.0352988 163.495305,20.014824 162.819462,19.2519609 C162.143297,18.4890978 161.175686,18.1075 159.916631,18.1075 C158.417125,18.1075 157.310085,18.5319777 156.597126,19.3806005 C155.884167,20.2295558 155.453616,21.2071507 155.305472,22.3130529 Z M166.499804,24.6588154 L155.166689,24.6588154 C155.185086,26.5465276 155.647912,27.8910945 156.555491,28.6921839 C157.462747,29.4936056 158.749882,29.8941503 160.416574,29.8941503 C161.120173,29.8941503 161.777619,29.8226838 162.388911,29.6797509 C162.999881,29.5364855 163.476263,29.3839129 163.819348,29.222033 C164.161788,29.0598207 164.638816,28.8168347 165.250431,28.4924101 L166.111533,30.6380665 C164.481313,31.821086 162.527695,32.4117647 160.250034,32.4117647 C159.009052,32.4117647 157.912018,32.244234 156.958286,31.911167 C156.004553,31.5774351 155.236081,31.1386642 154.653191,30.5951866 C154.069332,30.0510442 153.587786,29.3982062 153.20823,28.6353431 C152.828673,27.8731448 152.569826,27.114603 152.430397,26.3610471 C152.291614,25.6078237 152.222222,24.8014159 152.222222,23.9434858 C152.222222,23.199902 152.291614,22.4702792 152.430397,21.7549496 C152.569826,21.0399524 152.819313,20.3056759 153.180473,19.5521201 C153.541633,18.7988967 153.99994,18.1410727 154.555397,17.5783157 C155.111498,17.0158912 155.851246,16.5531873 156.77819,16.1908689 C157.70352,15.8288828 158.749882,15.6470588 159.916631,15.6470588 C161.194406,15.6470588 162.295636,15.8524834 163.222257,16.2623353 C164.14791,16.6725197 164.851186,17.230623 165.333378,17.9359805 C165.814601,18.6416704 166.157364,19.3806005 166.36102,20.1531033 C166.564677,20.9256061 166.666667,21.7692429 166.666667,22.685011 C166.666667,23.3142484 166.611153,23.9720724 166.499804,24.6588154 L166.499804,24.6588154 Z" id="Fill-18" fill="#1C204D"></path>
                <path d="M172.159204,36.8823529 C171.249186,36.8823529 170.301168,36.661924 169.31548,36.2201036 L170.253916,33.9827661 C170.841099,34.3325005 171.466612,34.5080094 172.130786,34.5080094 C173.192474,34.5080094 174.082996,33.6795561 174.804005,32.0226493 L175.343936,30.7799693 L168.888889,15.6470588 L172.102369,15.6470588 L176.766458,27.9355699 L181.401469,15.6470588 L184.444444,15.6470588 L177.335137,32.4092823 C176.670962,33.9923919 175.955901,35.1333602 175.18797,35.8334707 C174.419709,36.5329394 173.410561,36.8823529 172.159204,36.8823529" id="Fill-19" fill="#1C204D"></path>
            </g>
        </g>
    </g>
</svg>